<?xml version="1.0" encoding="UTF-8"?>
<svg width="64px" height="47px" viewBox="0 0 64 47" version="1.1" xmlns="http://www.w3.org/2000/svg" xmlns:xlink="http://www.w3.org/1999/xlink">
    <title>bels</title>
    <defs>
        <filter x="-3.3%" y="-11.7%" width="106.5%" height="123.3%" filterUnits="objectBoundingBox" id="filter-1">
            <feOffset dx="0" dy="2" in="SourceAlpha" result="shadowOffsetOuter1"></feOffset>
            <feGaussianBlur stdDeviation="2" in="shadowOffsetOuter1" result="shadowBlurOuter1"></feGaussianBlur>
            <feColorMatrix values="0 0 0 0 0   0 0 0 0 0   0 0 0 0 0  0 0 0 0.5 0" type="matrix" in="shadowBlurOuter1" result="shadowMatrixOuter1"></feColorMatrix>
            <feMerge>
                <feMergeNode in="shadowMatrixOuter1"></feMergeNode>
                <feMergeNode in="SourceGraphic"></feMergeNode>
            </feMerge>
        </filter>
    </defs>
    <g id="Web" stroke="none" stroke-width="1" fill="none" fill-rule="evenodd">
        <g id="Aplikace---Home" transform="translate(-569.000000, -3053.000000)" fill="#000000" fill-rule="nonzero">
            <g id="Group" filter="url(#filter-1)" transform="translate(556.000000, 3023.000000)">
                <g id="bells-light" transform="translate(17.000000, 32.000000)">
                    <path d="M55.8629076,24.5458808 C55.6791092,24.03215 55.3027601,23.5706631 54.7338604,23.2833222 C52.8958766,22.3429337 49.6312673,21.1152043 47.0843468,14.1406564 C47.0143284,13.9490958 45.7977582,10.6141996 45.7364921,10.4313463 C44.0122882,5.71198928 39.5311087,2.78633624 34.7698554,2.78633624 C33.4482575,2.78633624 32.1004027,3.01272605 30.7788048,3.4916276 C30.4637219,3.60482251 30.2011528,3.77896852 29.9035745,3.90957803 C28.6607473,2.51640991 27.0940849,1.38446082 25.2210919,0.70529136 C23.9082463,0.226389819 22.5516392,0 21.2300414,0 C16.4600358,0 11.9876085,2.92565305 10.2634047,7.64501005 C10.1933863,7.82786336 8.98556833,11.1627595 8.9155499,11.3543202 C6.35987718,18.3288681 3.10402016,19.5653048 1.26603636,20.4969859 C0.697136613,20.7843269 0.320787549,21.2458138 0.136989169,21.7595445 C-0.265616807,22.8827863 0.224512207,24.2672472 1.53735778,24.7374414 L8.71424691,27.3409243 C8.53044853,27.9504354 8.39916397,28.5860683 8.39916397,29.2565305 C8.39916397,33.1051574 11.5324887,36.2223711 15.401007,36.2223711 C18.2542581,36.2223711 20.6961508,34.5157401 21.7814365,32.0689886 L25.4661564,33.4012056 C25.2210919,33.9671802 24.8097336,34.6898861 25.1685781,35.6651038 C25.597441,36.8057602 26.8840296,37.5197589 28.1706183,37.0495646 L34.8223692,34.6376423 C35.855141,37.1975887 38.3670522,39 41.3078263,39 C45.1763446,39 48.3096694,35.8827863 48.3096694,32.0341594 C48.3096694,31.2766242 48.1433756,30.5713329 47.9070634,29.9008707 L54.4712913,27.5237776 C55.7753845,27.0535834 56.2655135,25.6691226 55.8629076,24.5458808 Z M15.3922547,33.4360348 C13.0728942,33.4360348 11.1911489,31.5639652 11.1911489,29.2565305 C11.1911489,28.9169457 11.2436627,28.6034829 11.3224334,28.2900201 L19.1032315,31.1111855 C18.4205518,32.4782317 17.0289355,33.4360348 15.3922547,33.4360348 Z M26.3063776,30.7454789 L3.49787383,22.4909578 C5.64218827,21.3764233 9.02932985,19.1647689 11.5324887,12.3034159 C12.25893,10.3094441 11.9788562,11.0756865 12.8803435,8.59410583 C14.1581799,5.11989283 17.5103122,2.78633624 21.2212891,2.78633624 C25.1335689,2.78633624 27.4179202,5.32016075 27.4879386,5.38981916 C23.698191,8.41995981 22.0440056,13.5746818 23.7944664,18.3724046 C23.8644848,18.5552579 25.0898074,21.8901541 25.1598258,22.0817147 C26.6389651,26.1219022 26.6827266,28.8124581 26.3063776,30.7454789 Z M41.299074,36.2223711 C39.5748702,36.2223711 38.1394923,35.1600804 37.5005742,33.6711319 L45.3163815,30.8412592 C45.4301614,31.2243804 45.5001799,31.6249163 45.5001799,32.0428667 C45.5001799,34.3503014 43.6184345,36.2223711 41.299074,36.2223711 Z M28.2143798,34.0629605 C29.142124,31.8338915 30.2974281,27.9852646 27.7942692,21.1152043 C26.9540481,18.8251842 27.3128925,19.8091092 26.4289098,17.4058942 C24.7572198,12.8345613 27.1378464,7.75820496 31.7328059,6.09511052 C36.371527,4.41460147 41.4391109,6.83523108 43.1020486,11.3717348 C43.9510221,13.6965841 43.5396638,12.5733423 44.4499034,15.0810449 C46.9618146,21.9423979 50.3402039,24.1540522 52.4845183,25.2685867 L28.2143798,34.0629605 Z" id="Shape"></path>
                </g>
            </g>
        </g>
    </g>
</svg>