<?xml version="1.0" encoding="utf-8"?>
<!-- Generator: Adobe Illustrator 23.0.3, SVG Export Plug-In . SVG Version: 6.00 Build 0)  -->
<svg version="1.1" id="Vrstva_1" xmlns="http://www.w3.org/2000/svg" xmlns:xlink="http://www.w3.org/1999/xlink" x="0px" y="0px"
	 viewBox="0 0 36.22 36.24" style="enable-background:new 0 0 36.22 36.24;" xml:space="preserve">
<style type="text/css">
	.st0{fill:#DCDCDC;}
</style>
<path id="Path_506" class="st0" d="M34.23,0H2C0.9,0,0,0.9,0,2v32.22c0,1.1,0.9,2,2,2h17.34V22.19h-4.72v-5.47h4.72v-4.02
	c0-4.68,2.86-7.22,7.03-7.22c1.41-0.01,2.82,0.07,4.23,0.22v4.89h-2.9c-2.27,0-2.72,1.07-2.72,2.66v3.49h5.42l-0.71,5.47h-4.71
	v14.04h9.23c1.1,0,2-0.9,2-2V2c0.01-1.09-0.86-1.99-1.96-2C34.25,0,34.24,0,34.23,0z"/>
</svg>
