<?xml version="1.0" encoding="utf-8"?>
<!-- Generator: Adobe Illustrator 23.0.3, SVG Export Plug-In . SVG Version: 6.00 Build 0)  -->
<svg version="1.1" id="Vrstva_1" xmlns="http://www.w3.org/2000/svg" xmlns:xlink="http://www.w3.org/1999/xlink" x="0px" y="0px"
	 viewBox="0 0 36.16 36.27" style="enable-background:new 0 0 36.16 36.27;" xml:space="preserve">
<style type="text/css">
	.st0{fill:#FFFFFF;}
</style>
<g id="Group_1273" transform="translate(1084.657 -1080.428)">
	<path id="Path_353" class="st0" d="M-1066.57,1116.58c-2.46,0-4.92,0.05-7.38-0.01c-2.82,0.09-5.56-0.93-7.64-2.83
		c-1.77-1.66-2.81-3.95-2.9-6.38c-0.17-4.54-0.18-9.08-0.17-13.62c-0.03-1.84,0.11-3.68,0.43-5.49c0.78-4.3,4.46-7.47,8.82-7.6
		c4.54-0.19,9.08-0.15,13.62-0.18c2.02-0.11,4.04,0.07,6.01,0.54c3.7,0.9,6.45,3.99,6.93,7.77c0.25,1.78,0.36,3.58,0.33,5.38
		c0.03,3.91,0.03,7.82-0.05,11.72c0.1,2.84-0.93,5.61-2.86,7.69c-1.67,1.72-3.93,2.75-6.32,2.87c-2.93,0.19-5.88,0.19-8.81,0.27
		L-1066.57,1116.58z M-1066.6,1113.4v-0.07c1.38,0,2.77,0.02,4.15-0.01s2.76-0.07,4.14-0.16c3.49-0.01,6.31-2.84,6.31-6.32
		c0.12-5.52,0.12-11.05,0-16.58c0.06-3.43-2.66-6.26-6.09-6.33c-0.06,0-0.13,0-0.19,0c-5.55-0.13-11.1-0.1-16.65,0
		c-2.81-0.04-5.29,1.86-5.97,4.59c-0.26,0.93-0.4,1.89-0.41,2.85c-0.01,5.11-0.04,10.23,0.09,15.33c-0.06,3.51,2.75,6.4,6.26,6.45
		c0.07,0,0.13,0,0.2,0C-1072.04,1113.3-1069.31,1113.32-1066.6,1113.4L-1066.6,1113.4z"/>
	<path id="Path_354" class="st0" d="M-1066.59,1089.19c5.15,0.02,9.32,4.2,9.34,9.35c-0.02,5.15-4.2,9.32-9.35,9.34
		c-5.15-0.02-9.32-4.2-9.34-9.35C-1075.91,1093.38-1071.74,1089.21-1066.59,1089.19z M-1072.62,1098.57
		c0.06,3.3,2.73,5.95,6.02,5.99c3.32-0.04,6-2.73,6.03-6.06c-0.05-3.3-2.72-5.96-6.02-5.99
		C-1069.91,1092.55-1072.59,1095.24-1072.62,1098.57L-1072.62,1098.57z"/>
	<path id="Path_355" class="st0" d="M-1054.73,1088.86c0.03,1.19-0.92,2.17-2.1,2.2c-0.03,0-0.06,0-0.09,0
		c-1.18,0.02-2.16-0.92-2.18-2.11c0-0.04,0-0.07,0-0.11c-0.01-1.19,0.95-2.16,2.13-2.17c0.01,0,0.02,0,0.03,0
		c1.19-0.03,2.18,0.91,2.21,2.1C-1054.73,1088.81-1054.73,1088.83-1054.73,1088.86z"/>
</g>
</svg>
