<?xml version="1.0" encoding="UTF-8"?>
<svg width="54px" height="54px" viewBox="0 0 54 54" version="1.1" xmlns="http://www.w3.org/2000/svg" xmlns:xlink="http://www.w3.org/1999/xlink">
    <title>info</title>
    <g id="Web" stroke="none" stroke-width="1" fill="none" fill-rule="evenodd">
        <g id="Aplikace---Home" transform="translate(-720.000000, -1564.000000)" fill="#F3847F" fill-rule="nonzero">
            <g id="Popis" transform="translate(677.000000, 1539.000000)">
                <g id="info-circle-light" transform="translate(43.000000, 25.000000)">
                    <path d="M27,3.48387097 C39.9143831,3.48387097 50.516129,13.9436492 50.516129,27 C50.516129,39.9873266 39.9981048,50.516129 27,50.516129 C14.0177903,50.516129 3.48387097,40.0033306 3.48387097,27 C3.48387097,14.022254 14.0010242,3.48387097 27,3.48387097 M27,0 C12.0893589,0 0,12.0937137 0,27 C0,41.914996 12.0893589,54 27,54 C41.9106411,54 54,41.914996 54,27 C54,12.0937137 41.9106411,0 27,0 Z M23.0806452,37.4516129 L24.3870968,37.4516129 L24.3870968,24.3870968 L23.0806452,24.3870968 C22.3591573,24.3870968 21.7741935,23.8021331 21.7741935,23.0806452 L21.7741935,22.2096774 C21.7741935,21.4881895 22.3591573,20.9032258 23.0806452,20.9032258 L28.3064516,20.9032258 C29.0279395,20.9032258 29.6129032,21.4881895 29.6129032,22.2096774 L29.6129032,37.4516129 L30.9193548,37.4516129 C31.6408427,37.4516129 32.2258065,38.0365766 32.2258065,38.7580645 L32.2258065,39.6290323 C32.2258065,40.3505202 31.6408427,40.9354839 30.9193548,40.9354839 L23.0806452,40.9354839 C22.3591573,40.9354839 21.7741935,40.3505202 21.7741935,39.6290323 L21.7741935,38.7580645 C21.7741935,38.0365766 22.3591573,37.4516129 23.0806452,37.4516129 Z M27,11.3225806 C25.0759234,11.3225806 23.516129,12.882375 23.516129,14.8064516 C23.516129,16.7305282 25.0759234,18.2903226 27,18.2903226 C28.9240766,18.2903226 30.483871,16.7305282 30.483871,14.8064516 C30.483871,12.882375 28.9240766,11.3225806 27,11.3225806 Z" id="Shape"></path>
                </g>
            </g>
        </g>
    </g>
</svg>