<?xml version="1.0" encoding="utf-8"?>
<!-- Generator: Adobe Illustrator 16.0.0, SVG Export Plug-In . SVG Version: 6.00 Build 0)  -->
<!DOCTYPE svg PUBLIC "-//W3C//DTD SVG 1.1//EN" "http://www.w3.org/Graphics/SVG/1.1/DTD/svg11.dtd">
<svg version="1.1" id="Layer_1" xmlns="http://www.w3.org/2000/svg" xmlns:xlink="http://www.w3.org/1999/xlink" x="0px" y="0px"
	 width="690.5px" height="153.5px" viewBox="0 0 690.5 153.5" enable-background="new 0 0 690.5 153.5" xml:space="preserve">
<path fill="#FEFEFE" d="M57.833,18.066c7.178,0,13.978,0.756,19.645,1.889c5.667,1.134,10.578,3.022,15.111,4.911
	c4.155,2.267,7.934,4.911,10.955,7.934c3.022,3.022,5.289,6.423,7.178,9.822c1.889,3.4,3.022,7.178,4.156,11.333
	c0.755,4.156,1.133,7.934,1.133,12.09c0,5.666-0.756,11.333-1.889,17.377c-1.134,5.667-3.022,11.334-5.667,17
	c-2.645,5.667-5.289,10.578-8.688,15.489c-3.4,4.911-7.556,9.066-12.089,12.467c-4.533,3.399-9.444,6.422-14.733,8.311
	c-5.289,1.89-11.333,3.022-17.378,3.022c-2.267,0-4.155,0-6.422-0.378s-4.533-0.755-6.423-1.133
	c-1.889-0.378-4.155-1.134-6.044-1.89c-1.889-0.755-3.4-1.511-4.911-2.266c-0.756,0-1.134-0.378-1.512-0.756
	c-0.377-0.378-0.755-0.378-0.755-0.756s-0.378-0.756-0.378-1.133c0-0.378,0-1.134,0-1.89c0-7.556,0.378-15.11,0.756-23.044
	c0.377-7.934,1.133-15.489,2.267-23.045c1.133-7.556,3.021-14.733,4.911-21.533c1.889-6.8,5.288-12.845,8.688-18.133
	c3.022-2.268,6.045-3.4,8.689-3.4c3.399,0,6.044,1.889,8.311,5.667c-2.267,2.645-3.777,6.044-5.289,9.444
	c-1.511,3.399-2.645,7.178-3.399,10.955c-1.134,3.778-1.889,7.556-2.267,11.711c-0.756,3.778-1.134,7.934-1.89,11.334
	c-0.755,4.155-1.133,7.556-1.511,10.577c-0.378,3.022-0.756,5.667-1.133,7.934c-0.378,2.267-0.378,4.155-0.378,5.667
	c0,1.511,0,3.399,0,4.911c0,1.511,0,3.021,0,4.155s0.378,1.889,0.755,2.645c0.378,0.756,1.134,1.133,1.89,1.511
	c0.755,0.378,1.889,0.378,3.399,0.378c4.533,0,8.689-0.756,12.845-2.645s7.934-4.155,11.333-7.178
	c3.4-3.021,6.422-6.422,9.066-10.577c2.645-4.156,4.911-8.312,6.801-12.467c1.889-4.533,3.399-9.067,4.533-13.601
	c1.133-4.533,1.511-9.066,1.511-13.222c0-5.289-0.756-9.822-2.645-13.978c-1.889-4.156-4.155-7.556-7.178-10.578
	s-6.8-4.911-10.955-6.422c-4.156-1.512-9.067-2.268-14.355-2.268c-3.778,0-7.556,0.378-11.334,0.756
	c-3.777,0.378-7.178,1.134-10.2,2.267c-3.021,1.134-6.044,2.267-8.311,3.778c-2.267,1.511-4.155,3.399-5.289,5.289
	c-3.399,5.288-6.044,9.066-8.311,11.711c-2.268,2.645-3.778,4.155-5.289,4.155c-1.889,0-3.022-2.267-3.022-6.8
	s0.756-8.312,1.889-12.089c1.134-3.4,2.645-6.8,4.911-9.444c1.889-2.645,4.533-4.911,7.178-6.801
	c2.645-1.889,6.045-3.399,9.444-4.91c3.4-1.512,6.801-2.268,10.578-2.645C49.9,18.444,54.056,18.066,57.833,18.066z"/>
<path fill="#FEFEFE" d="M115.633,121.578c0-1.89,0-4.156,0.378-6.801s0.378-5.288,0.756-8.311s0.755-6.045,1.511-9.066
	c0.378-3.022,1.134-6.045,1.512-8.689c0.755-2.645,1.133-5.289,1.889-7.556c0.755-2.267,1.133-4.155,1.889-5.666
	c0.378-1.134,0.756-1.89,1.134-2.267c0.377-0.378,0.755-1.134,1.133-1.512s1.134-0.378,1.889-0.756c0.756,0,1.512,0,2.645,0
	c1.134,0,2.267,0,2.645,0s1.134,0.378,1.511,0.756c0.378,0.378,0.378,1.134,0.756,1.889c0.378,0.756,0,1.89,0,3.4s0,3.777,0,6.045
	c0,2.266,0,4.533,0,7.178h0.756c0.755-1.89,1.889-3.778,3.022-6.045c1.133-2.267,2.267-4.155,3.777-6.422
	c1.511-1.89,3.022-3.4,4.911-4.911c1.889-1.512,4.155-1.89,6.422-1.89c0.756,0,1.512,0,2.645,0.378
	c0.756,0.378,1.512,0.756,2.267,1.134c0.756,0.378,1.134,1.133,1.512,1.889s0.378,1.511,0.378,2.645c0,0.756,0,1.889-0.378,3.4
	c-0.378,1.511-0.378,2.645-0.756,4.155s-0.378,3.022-0.756,4.533s-0.378,2.645-0.378,3.4c0,1.511,0,3.021,0.378,4.155
	c0.378,1.133,0.756,1.889,1.134,2.645s1.133,1.133,1.889,1.511s1.511,0.378,1.889,0.378c1.89,0,4.156-0.378,6.423-1.511
	c2.267-0.756,4.155-1.89,6.044-3.022c2.267-1.133,4.155-2.645,6.045-4.533l-1.134,15.866c-1.133,0.756-2.645,1.512-4.155,2.645
	c-1.512,1.134-3.022,1.89-4.911,2.645c-1.511,0.756-3.4,1.512-5.289,2.267c-1.889,0.378-3.777,0.756-5.667,0.756
	c-3.399,0-6.044-0.756-8.311-1.889c-1.889-1.512-3.778-3.022-4.911-5.289c-1.134-2.267-2.267-4.911-2.645-7.556
	c-0.756-2.645-1.134-5.667-1.511-8.312h-1.134l-12.089,33.623c-0.756,1.889-1.134,3.399-1.889,4.533
	c-0.378,1.133-1.134,2.267-1.889,2.645c-0.756,0.756-1.134,1.133-1.89,1.511c-0.755,0.378-1.511,0.378-2.267,0.378
	c-1.889,0-3.399-0.378-4.533-1.133c-1.133-0.756-1.889-1.89-2.645-3.022c-0.755-1.511-1.133-3.022-1.133-4.533
	C115.633,124.978,115.633,123.089,115.633,121.578z"/>
<path fill="#FEFEFE" d="M210.833,122.711c0,0,0,0.756,0,1.512c0,0.755-0.378,1.511-0.378,2.645
	c-0.378,1.133-0.755,1.889-1.133,3.021c-0.378,1.134-1.134,1.889-2.267,3.022c-1.134,1.133-2.267,1.511-3.778,2.267
	c-1.511,0.756-3.022,0.756-5.289,0.756c-1.511,0-3.021-0.378-4.533-0.756c-1.511-0.378-2.645-1.133-3.399-1.889
	c-1.134-0.756-1.89-1.889-2.267-3.4c-0.378-1.511-0.756-3.021-0.756-4.911c0-1.511,0.378-3.399,0.756-4.911
	c0.377-1.511,1.133-3.021,2.267-4.155c1.133-1.134,2.267-2.267,3.777-3.022s3.4-1.133,5.667-1.133c3.777,0,6.422,1.133,8.688,3.021
	C210.077,116.289,210.833,118.934,210.833,122.711z"/>
<path fill="#FEFEFE" d="M282.945,128.756c0,1.511-0.756,2.645-1.134,3.399c-0.755,0.756-1.511,1.512-2.267,1.89
	c-0.755,0.377-1.889,0.755-3.022,1.133c-1.133,0.378-2.267,0.378-3.021,0.378c-1.134,0-2.267,0-3.4-0.378
	c-1.133-0.378-2.267-0.756-3.022-1.133c-0.755-0.378-1.511-1.134-1.889-1.89c-0.378-0.755-0.756-1.511-0.756-2.645
	c0-1.889,0-3.399,0.378-5.288c0-1.512,0.378-3.022,0.756-4.534c1.134-5.288,2.267-10.2,3.4-14.733
	c1.133-4.533,1.889-8.688,2.267-12.844c0.755-4.156,1.133-7.934,1.889-11.711c0.378-3.778,0.756-7.556,1.133-11.334
	c0.378-3.777,0.756-7.934,1.134-12.089s0.756-8.688,1.134-13.222c0-0.378,0-0.756,0-1.512s0-1.133-0.378-1.889
	c0-0.378-0.378-1.133-0.756-1.511s-0.756-0.756-1.511-0.756c-1.134,0-2.267,0.378-3.778,1.133c-1.511,0.756-3.022,1.89-4.911,3.022
	s-3.399,2.645-5.289,4.533c-1.889,1.512-3.399,3.4-4.911,5.289c-0.377,0.756-0.755,1.133-1.133,1.511s-1.134,0.378-1.889,0.378
	c-0.378,0-0.378-0.378-0.756-0.756c-0.378-0.377-0.378-0.755-0.756-1.511c-0.378-0.378-0.378-1.133-0.378-1.889
	s-0.377-1.134-0.377-1.511c0-0.378,0-0.378,0.377-0.756c1.512-5.289,3.4-9.822,5.667-13.223c1.889-3.777,4.155-6.422,6.422-8.688
	s4.534-3.778,6.801-4.533c2.267-0.756,4.533-1.512,6.8-1.512c2.645,0,5.289,0.378,6.8,1.512c1.889,1.133,3.4,2.645,4.533,4.533
	c1.134,1.889,1.889,4.155,2.267,6.8s0.756,5.667,0.756,9.066c0,2.645-0.378,5.667-0.756,8.689c-0.378,3.399-0.755,6.8-1.511,10.577
	c-0.756,3.778-1.134,7.556-1.889,11.334c-0.756,3.777-1.512,7.178-2.267,10.577c1.511-6.044,3.021-11.711,5.288-17.378
	c1.89-5.666,4.156-10.577,6.423-15.488s4.911-9.067,7.556-13.223c2.645-3.777,5.288-7.178,7.933-10.2
	c2.645-2.645,5.667-4.911,8.312-6.422c3.022-1.511,5.667-2.267,8.312-2.267c1.889,0,4.155,0.378,5.666,1.511
	c1.889,0.756,3.4,2.267,4.533,4.156c1.134,1.889,2.267,4.155,3.022,7.178c0.756,3.021,1.134,6.422,1.134,10.199
	c0,0.378,0,0.756,0,1.512s0,1.511-0.378,2.645c0,1.133-0.378,1.889-0.378,3.399c0,1.512-0.378,2.267-0.378,3.4
	c-0.378,2.645-0.756,5.667-1.134,8.688h1.512c1.889-6.8,3.777-12.844,6.422-18.133s5.289-9.822,8.689-13.601
	c3.021-3.777,6.8-6.422,10.199-8.688c3.778-1.889,7.556-3.022,11.334-3.022c2.645,0,5.289,0.756,7.178,2.267
	c2.267,1.512,3.777,3.778,5.289,6.423c1.511,2.645,2.644,6.044,3.399,9.822c0.756,3.777,1.134,7.556,1.134,11.711
	c0,3.777-0.378,7.934-0.756,12.089s-1.134,8.312-1.889,12.089c-0.756,4.155-1.512,7.934-2.645,11.711
	c-0.756,3.778-1.889,7.556-2.645,10.956c-0.756,3.399-1.511,6.422-1.889,9.444s-0.756,5.289-0.756,7.556
	c0,2.645,0.378,4.533,1.511,5.666c1.134,1.134,2.268,1.89,4.156,1.89c1.133,0,2.267-0.378,3.399-0.756
	c1.134-0.378,2.267-1.134,3.4-2.267c1.133-0.756,2.267-1.889,3.399-3.022c1.134-1.134,2.268-2.267,3.4-3.777
	c2.267-3.022,4.911-6.045,7.178-9.822c0,0,0.378,0.378,0.756,1.511c0.378,0.756,0.755,1.889,1.511,3.777
	c0.756,1.89,1.889,4.534,3.022,7.934c-2.267,4.156-4.533,7.178-6.8,10.2s-4.911,4.911-7.178,6.8s-4.911,3.022-7.556,3.778
	c-2.645,0.755-4.911,1.133-7.556,1.133c-2.267,0-4.911-0.378-7.178-1.133c-2.267-0.756-4.533-2.267-6.045-3.778
	c-1.889-1.511-3.399-3.777-4.155-6.422s-1.511-5.289-1.511-8.689c0-0.377,0-0.755,0-1.133s0-0.756,0-1.134
	c0-3.021,0.378-6.422,1.133-9.821c0.756-3.4,1.134-6.801,1.889-10.578c0.756-3.778,1.512-7.178,2.268-10.956
	c0.755-3.777,1.511-7.556,2.267-11.333c0.755-3.777,1.133-7.556,1.511-10.955c0.378-3.778,0.756-7.178,0.756-10.578
	c0-1.889,0-3.777-0.378-5.667c0-1.511-0.378-3.021-0.756-4.155c-0.378-1.133-1.133-1.889-1.889-2.645s-1.889-1.133-3.022-1.133
	c-2.267,0-4.533,0.755-6.8,2.645c-2.267,1.511-4.155,4.155-6.045,6.8c-1.889,3.021-3.777,6.422-5.288,10.577
	c-1.512,4.156-3.022,8.312-4.534,13.223c-1.511,4.533-3.021,9.444-4.155,14.733c-1.133,5.288-2.267,10.2-3.399,15.488
	c-1.134,5.289-2.268,10.2-3.022,15.489c-0.756,5.289-1.889,9.822-2.645,14.355c-0.378,1.133-0.756,2.267-1.511,3.4
	c-0.756,1.133-1.512,1.511-2.645,2.267c-1.134,0.378-1.89,0.755-3.022,1.133c-1.134,0.378-2.267,0.378-3.4,0.378
	c-1.133,0-1.889,0-2.645-0.378c-0.755-0.378-1.889-0.755-2.267-1.889c-0.755-0.756-1.133-1.889-1.511-3.022
	c-0.378-1.133-0.756-2.645-0.756-4.533c0-1.133,0.378-3.022,0.756-6.044c0.378-3.022,1.133-6.423,1.889-10.2
	c0.756-4.156,1.889-8.312,2.645-13.223c1.134-4.911,1.889-9.444,2.645-14.733c0.756-4.911,1.511-9.822,1.889-14.733
	s0.756-9.444,0.756-13.222c0-2.645,0-5.289-0.378-7.556c0-2.267-0.378-4.155-1.134-5.667c-0.377-1.511-1.133-2.645-2.267-3.399
	c-0.755-0.756-2.267-1.134-3.777-1.134c-1.134,0-2.645,0.756-4.155,2.645c-1.512,1.889-3.4,4.155-5.289,7.178
	s-3.778,6.423-5.667,10.578s-3.777,8.311-6.044,13.222c-1.89,4.911-3.778,9.822-5.667,14.733c-1.889,5.289-3.4,10.2-4.911,15.489
	s-3.022,10.2-4.155,15.111C284.455,120.066,283.323,124.6,282.945,128.756z"/>
<path fill="#FEFEFE" d="M450.678,84.934c1.133,2.645,2.267,5.289,3.022,8.311c0.755,3.022,1.133,5.667,1.133,8.312
	s-0.378,5.289-0.756,7.934c-0.755,2.645-1.511,5.288-2.644,7.933c-1.134,2.645-2.645,4.911-4.156,7.178
	c-1.511,2.268-3.399,4.156-5.666,5.667c-1.89,1.511-4.156,3.022-6.801,3.778c-2.267,1.133-4.911,1.511-7.933,1.511
	c-4.156,0-7.556-0.756-10.2-2.645s-5.289-4.155-6.8-6.8c-1.89-2.645-3.022-6.045-3.778-9.444c-0.755-3.4-1.133-7.178-1.133-10.578
	c0-4.911,0.755-9.444,2.267-13.978c1.511-4.156,3.777-7.934,6.422-11.334c2.645-3.021,6.045-5.666,10.2-7.555
	c4.155-1.89,8.688-2.645,13.6-2.645c4.156,0,8.312,0.755,12.089,1.889c3.778,1.133,7.178,3.022,10.578,5.289
	s6.422,4.911,9.066,7.555c2.645,3.022,5.289,6.045,7.934,9.067l-1.134,9.444c-1.133-1.512-3.021-3.4-4.911-5.289
	c-1.889-1.889-4.155-3.777-6.422-5.666c-2.267-1.89-4.533-3.4-6.8-5.289c-2.267-1.512-4.155-3.022-5.667-4.156L450.678,84.934z
	 M429.9,122.711c1.512,0,3.022-0.756,4.533-2.267c1.512-1.511,2.645-3.399,3.778-6.044c1.133-2.268,1.889-4.911,2.645-7.934
	s1.133-5.667,1.133-8.312c0-1.889,0-4.155-0.377-5.667c-0.378-1.889-0.756-3.399-1.512-4.533c-0.756-1.133-1.511-2.267-2.267-3.021
	c-1.133-0.756-2.267-1.134-3.777-1.134c-1.89,0-3.778,0.756-5.289,2.267c-1.512,1.512-3.022,3.778-4.533,6.045
	c-1.134,2.645-2.267,5.289-3.022,8.311c-0.756,3.022-1.134,5.667-1.134,8.689c0,1.889,0,3.777,0.378,5.289
	c0.378,1.511,0.756,3.021,1.512,4.533c0.755,1.511,1.889,2.267,3.021,3.021C426.122,122.711,428.011,122.711,429.9,122.711z"/>
<path fill="#FEFEFE" d="M519.056,75.111c0,1.133,0,3.021-0.378,4.911c-0.378,2.267-0.756,4.533-1.134,6.8
	c-0.378,2.645-0.755,4.911-1.511,7.934c-0.378,2.645-1.134,5.288-1.512,7.555c-0.377,2.268-0.755,4.156-1.133,6.045
	s-0.378,3.022-0.378,3.777c0,1.134,0,2.268,0,3.4s0,1.889,0.378,2.645s0.756,1.511,1.133,1.889c0.378,0.378,1.134,0.756,1.89,0.756
	c1.133,0,2.267-0.378,3.777-0.756c1.512-0.378,3.022-1.133,4.533-1.889c1.512-0.756,3.4-1.889,4.911-3.022
	c1.512-1.133,3.4-2.267,4.911-3.399c1.512-1.134,3.022-2.267,4.156-3.4c1.133-1.133,2.267-2.267,3.021-3.4c0,1.512,0,3.022,0,4.156
	c0,1.133,0,2.267,0,3.399c0,1.134,0,2.267,0,3.4s0,2.645,0,3.777c-1.133,1.134-2.267,1.89-3.777,3.022
	c-1.512,1.134-3.022,2.267-4.911,3.4c-1.889,1.133-3.778,2.267-5.667,3.399c-1.889,1.134-4.155,1.89-6.044,2.645
	c-1.89,0.756-4.156,1.512-6.045,1.89c-1.889,0.377-3.777,0.755-5.666,0.755c-1.89,0-3.022-0.378-4.534-1.133
	c-1.133-0.756-2.267-1.512-3.021-3.022c-0.756-1.133-1.512-2.645-2.267-4.533c-0.756-1.512-1.134-3.4-1.512-5.667
	c-1.511,2.267-3.399,4.155-5.289,6.045c-1.889,1.889-3.777,3.399-5.666,4.533c-1.89,1.134-3.778,2.267-5.667,3.022
	c-1.889,0.755-3.777,1.133-5.667,1.133c-1.511,0-3.021-0.378-4.155-0.756c-1.133-0.377-2.645-1.511-3.4-2.645
	c-1.133-1.133-1.889-2.645-2.267-4.533c-0.755-1.889-0.755-4.155-0.755-7.178c0-3.399,0.378-7.934,1.133-13.222
	c0.756-5.289,1.89-11.334,3.022-18.512c0-0.755,0.378-1.511,0.378-2.645c0.378-1.133,0.756-2.267,1.133-3.777
	c0.378-1.511,1.134-2.645,1.512-4.155c0.755-1.512,1.511-2.645,2.267-3.778c0.756-1.133,1.889-1.889,3.022-2.645
	c1.133-0.756,2.267-1.133,3.777-1.133c2.267,0,4.155,0.378,5.289,0.755c1.133,0.378,1.511,1.134,1.511,1.89
	c-0.378,2.267-0.755,4.911-1.133,7.933c-0.378,3.022-1.134,6.045-1.512,8.689c-0.377,2.645-1.133,6.044-1.511,8.688
	s-0.756,5.289-1.134,7.556c-0.377,2.267-0.755,4.155-0.755,5.289c-0.378,1.511-0.378,1.889-0.378,2.267c0,0.756,0,1.511,0.378,2.267
	s0.378,1.511,0.755,1.889c0.378,0.756,0.756,1.134,1.134,1.512c0.378,0.377,1.134,0.377,1.889,0.377
	c1.134,0,1.889-0.377,3.022-0.755s1.889-1.134,3.022-2.267c0.755-1.134,1.889-2.268,2.645-3.778
	c0.755-1.511,1.133-3.022,1.511-4.911l6.8-34.378c0.378-1.133,1.134-1.889,2.645-2.645c1.512-0.755,3.4-1.133,5.289-1.133
	c2.267,0,4.155,0.378,5.667,1.133C518.3,72.467,519.056,73.6,519.056,75.111z"/>
<path fill="#FEFEFE" d="M531.145,109.489c2.645-2.267,4.533-4.156,6.044-5.289c1.512-1.512,3.022-2.645,4.155-3.778
	c1.134-1.133,2.268-2.267,3.022-3.777c0.756-1.134,1.889-2.645,3.4-4.155c1.133-1.512,2.645-3.778,4.533-6.045
	s4.155-5.289,7.178-9.066c0.756-0.756,1.134-1.511,1.889-2.267c0.756-0.756,1.512-1.512,2.267-1.889
	c0.756-0.756,1.89-1.134,3.022-1.512c1.134-0.378,2.267-0.756,3.4-0.756c2.266,0,3.777,0.378,4.91,0.756
	c1.134,0.378,1.89,1.134,2.645,1.889c0.756,0.756,0.756,1.512,1.134,2.268c0,0.755,0,1.511,0,1.889c0,1.133-0.378,2.267-1.134,3.777
	c-0.755,1.134-1.889,2.645-3.021,3.777c-1.134,1.134-1.89,2.268-3.022,3.4c-0.756,1.134-1.511,1.889-1.511,2.267
	c0,1.512,0,2.645,0.377,3.778c0.378,1.133,0.378,2.267,0.756,3.399c0.378,1.134,0.756,2.267,1.133,3.4
	c0.378,1.133,0.756,2.645,1.134,4.155c0.378,1.512,0.756,3.4,0.756,5.667c0.378,2.267,0.378,4.533,0.378,7.556
	c1.511-1.134,3.399-1.889,5.288-3.022c1.89-1.134,3.778-1.889,6.045-2.645s4.155-1.889,6.422-3.022
	c2.267-1.133,4.155-2.645,6.423-4.155V121.2c-2.645,2.267-6.045,4.155-9.822,6.044c-3.778,1.889-7.556,3.4-11.712,4.911
	c-4.155,1.512-8.311,2.645-12.088,3.4c-4.156,0.755-7.934,1.133-11.712,1.133c-2.644,0-5.288-0.378-7.555-0.755
	c-2.267-0.378-4.156-1.134-6.045-2.268c-1.889-1.133-3.022-2.267-4.155-4.155c-1.134-1.889-1.889-3.777-1.889-6.044
	c-0.756,0-1.134,0.377-1.89,0.377c-0.755,0-1.133,0-1.889,0s-1.511,0-1.889,0c-0.756,0-1.134-0.377-1.511-0.377
	c-0.378-0.378-0.756-0.756-1.134-1.512s-0.378-1.511-0.378-2.645c0-1.133,0.378-2.267,0.756-3.021
	c0.378-0.756,1.133-1.89,1.889-2.645c0.756-0.756,1.511-1.512,2.267-1.89C530.389,110.244,530.767,109.867,531.145,109.489z
	 M539.833,118.178c0.378,0,1.134,0.378,1.889,1.133c0.756,0.756,1.512,1.512,2.267,2.268c0.756,0.755,1.89,1.511,3.022,2.267
	c1.134,0.755,2.267,1.133,3.778,1.133c1.889,0,3.399-0.378,4.533-0.756c1.133-0.755,1.889-1.511,2.645-2.267
	c0.755-1.133,1.133-2.267,1.511-3.399c0.378-1.134,0.378-2.645,0.378-4.156c0-1.133,0-2.645-0.378-3.777
	c0-1.134-0.378-2.645-0.756-3.778c-0.378-1.133-0.378-2.267-0.755-3.399c-0.378-1.134-0.378-1.889-0.756-2.645L539.833,118.178z"/>
<path fill="#FEFEFE" d="M615.011,135.556c-4.155,0-7.934-0.756-10.956-2.267c-3.021-1.512-5.666-3.778-7.933-6.045
	c-2.267-2.645-3.778-5.666-4.911-9.066c-1.134-3.4-1.512-6.8-1.512-10.578c0-2.645,0.378-5.289,0.756-7.933
	c0.378-2.645,1.134-5.667,2.267-8.312c1.134-2.645,2.267-5.289,3.777-7.934c1.512-2.645,3.4-4.533,5.289-6.422
	c1.89-1.889,4.533-3.4,6.801-4.533c2.644-1.134,5.288-1.512,8.688-1.512c2.645,0,4.911,0.378,7.178,1.134
	c2.267,0.755,4.155,1.889,5.667,3.399c1.511,1.512,3.021,3.4,3.777,5.289c0.756,2.267,1.512,4.533,1.512,6.8
	c0,2.645-0.756,5.667-1.89,8.312c-1.133,2.645-3.399,5.289-5.666,7.934s-5.289,4.533-8.689,6.8
	c-3.399,1.889-7.178,3.399-10.955,4.533c0.755,1.134,1.511,2.267,1.889,3.022c0.756,0.756,1.133,1.511,1.889,1.889
	s1.511,0.756,2.267,1.133c0.756,0.378,1.512,0.378,2.267,0.378c2.645,0,5.667-0.378,8.689-1.511
	c3.021-1.133,6.044-2.267,8.688-4.155c3.022-1.512,5.667-3.4,7.934-5.289c2.645-1.889,4.533-3.778,6.422-5.289l8.689,9.066
	c-4.156,4.156-8.312,7.934-12.845,10.956c-1.889,1.511-4.155,2.645-6.422,4.155c-2.267,1.134-4.534,2.645-7.179,3.4
	c-2.644,0.755-4.91,1.889-7.555,2.267S617.656,135.556,615.011,135.556z M605.945,103.822c1.511,0,3.399-0.378,5.288-1.134
	c1.89-0.755,3.778-1.889,5.289-3.399c1.512-1.134,3.022-2.645,4.156-4.156c1.133-1.511,1.511-3.021,1.511-4.533
	c0-1.889-0.378-3.777-1.134-4.911c-0.755-1.133-1.511-1.889-2.644-1.889c-1.89,0-3.778,0.378-4.912,1.134
	c-1.511,0.755-2.644,1.511-3.399,2.645c-0.756,1.133-1.511,2.645-2.267,3.777c-0.756,1.134-1.134,3.022-1.134,4.533
	c-0.378,1.512-0.378,3.022-0.755,4.156C605.945,101.556,605.945,102.688,605.945,103.822z"/>
</svg>
