<?xml version="1.0" encoding="UTF-8"?>
<svg width="48px" height="48px" viewBox="0 0 48 48" version="1.1" xmlns="http://www.w3.org/2000/svg" xmlns:xlink="http://www.w3.org/1999/xlink">
    <title>Micro</title>
    <g id="Web" stroke="none" stroke-width="1" fill="none" fill-rule="evenodd">
        <g id="Aplikace---Home" transform="translate(-324.000000, -1128.000000)" fill="#F3847F" fill-rule="nonzero">
            <g id="Popis" transform="translate(295.000000, 1100.000000)">
                <g id="microscope-light" transform="translate(29.000000, 28.000000)">
                    <path d="M42.75,39 L38.9071875,39 C42.583125,36.2634375 45,31.92375 45,27 C45,18.729375 38.270625,12 30,12 L30,6 C30,4.3434375 28.6565625,3 27,3 L27,1.5 C27,0.67125 26.32875,0 25.5,0 L16.5,0 C15.67125,0 15,0.67125 15,1.5 L15,3 C13.3434375,3 12,4.3434375 12,6 L12,27 C12,28.6565625 13.3434375,30 15,30 L15,34.5 C15,35.32875 15.67125,36 16.5,36 L25.5,36 C26.32875,36 27,35.32875 27,34.5 L27,30 C28.6565625,30 30,28.6565625 30,27 L30,15 C36.6178125,15 42,20.383125 42,27 C42,33.616875 36.6178125,39 30,39 L5.25,39 C2.355,39 0,41.355 0,44.25 C0,46.318125 1.681875,48 3.75,48 L44.25,48 C46.318125,48 48,46.318125 48,44.25 C48,41.355 45.645,39 42.75,39 Z M24,33 L18,33 L18,30 L24,30 L24,33 Z M27,27 L15,27 L15,6 L18,6 L18,3 L24,3 L24,6 L27,6 L27,27 Z M44.25,45 L3.75,45 C3.335625,45 3,44.664375 3,44.25 C3,43.006875 4.0078125,42 5.25,42 L42.75,42 C43.9921875,42 45,43.006875 45,44.25 C45,44.664375 44.664375,45 44.25,45 Z" id="Shape"></path>
                </g>
            </g>
        </g>
    </g>
</svg>