<?xml version="1.0" encoding="UTF-8"?>
<svg width="54px" height="54px" viewBox="0 0 54 54" version="1.1" xmlns="http://www.w3.org/2000/svg" xmlns:xlink="http://www.w3.org/1999/xlink">
    <title>nav@2x</title>
    <g id="Web" stroke="none" stroke-width="1" fill="none" fill-rule="evenodd">
        <g id="Aplikace---Home" transform="translate(-318.000000, -2236.000000)" fill="#F3847F" fill-rule="nonzero">
            <g id="Popis" transform="translate(294.000000, 2211.000000)">
                <g id="directions-light" transform="translate(24.000000, 25.000000)">
                    <path d="M53.0096484,24.6079687 L29.3920313,0.990351563 C28.7317969,0.330117187 27.8658984,0 27,0 C26.1341016,0 25.2682031,0.330117187 24.6079687,0.990351563 L0.990351563,24.6079687 C-0.330117187,25.9294922 -0.330117187,28.0705078 0.990351563,29.3920313 L24.6079687,53.0096484 C25.2682031,53.6698828 26.1341016,54 27,54 C27.8658984,54 28.7317969,53.6698828 29.3920313,53.0096484 L53.0096484,29.3920313 C54.3301172,28.0705078 54.3301172,25.9294922 53.0096484,24.6079687 Z M26.9947266,50.6228906 L3.37710937,26.9947266 L26.9947266,3.37605469 C26.9957812,3.37605469 26.9968359,3.375 27,3.375 L27.0052734,3.37710937 L50.6228906,27.0052734 L26.9947266,50.6228906 Z M34.8985547,23.625 L21.9375,23.625 C19.1415234,23.625 16.875,25.8915234 16.875,28.6875 L16.875,32.90625 C16.875,33.3724219 17.2525781,33.75 17.71875,33.75 L19.40625,33.75 C19.8724219,33.75 20.25,33.3724219 20.25,32.90625 L20.25,28.6875 C20.25,27.7551562 21.0051562,27 21.9375,27 L34.8985547,27 L29.1367969,32.3187891 C28.7940234,32.6351953 28.7729297,33.1688672 29.0893359,33.5105859 L30.2326172,34.7487891 C30.5490234,35.0915625 31.0826953,35.1126563 31.4244141,34.79625 L39.6931641,27.1645312 C40.2067969,26.6878125 40.5010547,26.0107031 40.5010547,25.3103906 C40.5010547,24.6100781 40.2078516,23.9329688 39.6868359,23.4520313 L31.4244141,15.8255859 C31.0816406,15.5091797 30.5479688,15.5313281 30.2326172,15.8730469 L29.0893359,17.11125 C28.7729297,17.4540234 28.7950781,17.9876953 29.1367969,18.3030469 L34.8985547,23.625 Z" id="Shape"></path>
                </g>
            </g>
        </g>
    </g>
</svg>