<?xml version="1.0" encoding="UTF-8"?>
<svg width="56px" height="50px" viewBox="0 0 56 50" version="1.1" xmlns="http://www.w3.org/2000/svg" xmlns:xlink="http://www.w3.org/1999/xlink">
    <title>Shape</title>
    <defs>
        <filter x="-4.8%" y="-11.7%" width="109.6%" height="123.3%" filterUnits="objectBoundingBox" id="filter-1">
            <feOffset dx="0" dy="2" in="SourceAlpha" result="shadowOffsetOuter1"></feOffset>
            <feGaussianBlur stdDeviation="2" in="shadowOffsetOuter1" result="shadowBlurOuter1"></feGaussianBlur>
            <feColorMatrix values="0 0 0 0 0   0 0 0 0 0   0 0 0 0 0  0 0 0 0.5 0" type="matrix" in="shadowBlurOuter1" result="shadowMatrixOuter1"></feColorMatrix>
            <feMerge>
                <feMergeNode in="shadowMatrixOuter1"></feMergeNode>
                <feMergeNode in="SourceGraphic"></feMergeNode>
            </feMerge>
        </filter>
    </defs>
    <g id="Web" stroke="none" stroke-width="1" fill="none" fill-rule="evenodd">
        <g id="Aplikace---Home" transform="translate(-312.000000, -3052.000000)" fill="#000000" fill-rule="nonzero">
            <g id="Group" filter="url(#filter-1)" transform="translate(292.000000, 3023.000000)">
                <g id="paw-light" transform="translate(24.000000, 31.000000)">
                    <path d="M24,18.0005395 C16.5552448,18.0005395 5.99983641,29.5090308 5.99983641,36.773555 C5.99983641,40.0453564 8.51329675,42 12.7255225,42 C17.3043141,42 20.3277791,39.6488029 24,39.6488029 C27.7040962,39.6488029 30.7359987,42 35.2744775,42 C39.4867032,42 42.0001636,40.0453564 42.0001636,36.773555 C42.0001636,29.5090308 31.4447552,18.0005395 24,18.0005395 Z M35.2744775,39.0000674 C33.3713352,39.0000674 31.7297578,38.4591421 29.991617,37.8863425 C28.1466002,37.2779186 26.2397079,36.6498078 24,36.6498078 C21.7827923,36.6498078 19.8890251,37.2751062 18.0571335,37.8797801 C16.3096176,38.4563297 14.6586651,39.0010049 12.7255225,39.0010049 C8.99986367,39.0000674 8.99986367,37.3238551 8.99986367,36.773555 C8.99986367,30.8768125 18.3927615,21.000472 24,21.000472 C29.6072385,21.000472 39.0001363,30.8768125 39.0001363,36.773555 C39.0001363,37.3238551 39.0001363,39.0000674 35.2744775,39.0000674 Z M44.515499,12.1197342 C44.1808084,12.039111 43.8404928,12.0006743 43.5020522,12.0006743 C41.0785927,12.0006743 38.6626333,13.9693801 37.8076255,16.8183785 C36.8326166,20.066743 38.2548171,23.2288594 40.9848419,23.8813448 C41.3204699,23.961968 41.659848,24.0004046 41.9982886,24.0004046 C44.4217481,24.0004046 46.8377076,22.0316989 47.6927153,19.1827004 C48.6677242,15.9343359 47.2455238,12.7722195 44.515499,12.1197342 L44.515499,12.1197342 Z M44.8192517,18.3202198 C44.3158096,19.9973696 42.9892351,21.000472 41.9982886,21.000472 C41.8895376,21.000472 41.7835991,20.9882848 41.6823482,20.9639104 C41.3354701,20.8814122 41.0523425,20.6526674 40.8404656,20.2842381 C40.4532745,19.6111283 40.3942115,18.6389626 40.6810891,17.6817966 C41.1845312,16.0037094 42.5111057,15.0006069 43.5029898,15.0006069 C43.6117407,15.0006069 43.7176792,15.0127941 43.8189301,15.0371686 C44.1658083,15.1196667 44.4489358,15.3493491 44.6608128,15.7168408 C45.0470663,16.3899507 45.1070668,17.3621163 44.8192517,18.3202198 L44.8192517,18.3202198 Z M29.8650533,14.8702973 C30.1978688,14.9574829 30.5353719,14.9996694 30.8738125,14.9996694 C33.4838362,14.9996694 36.1444854,12.4853509 37.1269943,8.88261942 C38.2370044,4.81208592 36.7857412,0.894361483 33.8850898,0.130316157 C33.5559013,0.0433674815 33.216809,-0.000435812464 32.8763307,3.26835771e-06 C30.266307,3.26835771e-06 27.6056578,2.51432507 26.6231488,6.11799406 C25.5131388,10.1885276 26.9644019,14.1071895 29.8650533,14.8702973 L29.8650533,14.8702973 Z M29.5172376,6.9082888 C30.212869,4.35834612 31.9153844,3.00087663 32.8763307,3.00087663 C32.9616439,3.00087663 33.0422697,3.0111889 33.1210204,3.03181344 C33.5082114,3.13399864 33.7885265,3.5005529 33.955403,3.79023389 C34.4316573,4.61521534 34.7541602,6.17893019 34.231968,8.09419964 C33.5363367,10.6432048 31.8347587,12.0006743 30.872875,12.0006743 C30.7875617,12.0006743 30.706936,11.9903621 30.6272477,11.9697375 C30.2409942,11.8684898 29.9597417,11.5019355 29.7928651,11.2122546 C29.3175483,10.3863356 28.9950454,8.82355825 29.5172376,6.9082888 L29.5172376,6.9082888 Z M17.1261875,15.0006069 C17.4646281,15.0006069 17.8021312,14.9584203 18.1349467,14.8712348 C21.0355981,14.108127 22.4868612,10.189465 21.3768512,6.11893154 C20.3943422,2.51526255 17.733693,0.000944064973 15.1236693,0.000944064973 C14.7852288,0.000944064973 14.4477257,0.0431306167 14.1149102,0.131253636 C11.2142588,0.894361483 9.76299561,4.8130234 10.8730057,8.8835569 C11.8555146,12.4862884 14.5171013,15.0006069 17.1261875,15.0006069 Z M14.0436595,3.79023389 C14.210536,3.5005529 14.4917886,3.13399864 14.8780421,3.03181344 C14.9577303,3.0111889 15.0374185,3.00087663 15.1227318,3.00087663 C16.0846156,3.00087663 17.7861935,4.35834612 18.4818248,6.9082888 C19.0040171,8.82355825 18.6815142,10.3872731 18.2052598,11.2122546 C18.0383833,11.5019355 17.7580683,11.8684898 17.3708773,11.9697375 C17.291189,11.9903621 17.2115008,12.0006743 17.1261875,12.0006743 C16.1643038,12.0006743 14.4627258,10.6432048 13.7670945,8.09326216 C13.2449023,6.17893019 13.5674052,4.61521534 14.0436595,3.79023389 Z M7.01609564,23.8813448 C9.74612046,23.2288594 11.1683209,20.066743 10.1923745,16.8183785 C9.33736674,13.9693801 6.92140728,12.0006743 4.49794776,12.0006743 C4.15856967,12.0006743 3.81919159,12.039111 3.48450105,12.1197342 C0.754476235,12.7722195 -0.66772419,15.9343359 0.307284671,19.1827004 C1.16229244,22.0316989 3.57918941,24.0004046 6.00171142,24.0004046 C6.34108951,24.0004046 6.68046759,23.961968 7.01609564,23.8813448 Z M3.18074829,18.3192823 C2.89387068,17.3621163 2.95293372,16.3890132 3.34012473,15.7168408 C3.55200166,15.3484116 3.83512923,15.1196667 4.18200739,15.0371686 C4.28325831,15.0127941 4.38919677,15.0006069 4.49794776,15.0006069 C5.48889426,15.0006069 6.81546882,16.0037094 7.3189109,17.6808592 C7.6057885,18.6380251 7.54672547,19.6111283 7.15953445,20.2842381 C6.94765752,20.6526674 6.66452995,20.8814122 6.3176518,20.9639104 C6.21452586,20.9882848 6.11139992,21.000472 6.00171142,21.000472 C5.01076492,21.000472 3.68419036,19.9973696 3.18074829,18.3192823 L3.18074829,18.3192823 Z" id="Shape"></path>
                </g>
            </g>
        </g>
    </g>
</svg>