<?xml version="1.0" encoding="UTF-8"?>
<svg width="42px" height="56px" viewBox="0 0 42 56" version="1.1" xmlns="http://www.w3.org/2000/svg" xmlns:xlink="http://www.w3.org/1999/xlink">
    <title>Shape</title>
    <g id="Web" stroke="none" stroke-width="1" fill="none" fill-rule="evenodd">
        <g id="Aplikace---Home" transform="translate(-730.000000, -379.000000)" fill="#F3847F" fill-rule="nonzero">
            <g id="Popis" transform="translate(683.000000, 355.000000)">
                <g id="map-marker-alt-light" transform="translate(47.000000, 24.000000)">
                    <path d="M21,10.5000051 C15.2102344,10.5000051 10.5,15.2102418 10.5,21.0000051 C10.5,26.7897787 15.2102344,31.5000154 21,31.5000154 C26.7897656,31.5000154 31.5,26.7897787 31.5,21.0000051 C31.5,15.2102418 26.7897656,10.5000051 21,10.5000051 Z M21,28.0000068 C17.1401563,28.0000068 14,24.8598559 14,21.0000068 C14,17.1401646 17.1401563,14.0000068 21,14.0000068 C24.8598437,14.0000068 28,17.1401646 28,21.0000068 C28,24.8598559 24.8598437,28.0000068 21,28.0000068 Z M21,0 C9.40198437,0 0,9.40198897 0,21.0000103 C0,29.4670613 2.94984375,31.8315312 18.8418125,54.870183 C19.8845937,56.3764963 22.1152969,56.376715 23.1582969,54.870183 C39.0501563,31.8315312 42,29.4670613 42,21.0000103 C42,9.40198897 32.5980156,0 21,0 Z M21,51.8362284 C5.76460938,29.8033896 3.5,28.0540449 3.5,21.0000017 C3.5,16.3255392 5.32032812,11.930959 8.62564062,8.62564484 C11.9309531,5.32033072 16.3255313,3.50000171 21,3.50000171 C25.6744688,3.50000171 30.0690469,5.32033072 33.3743594,8.62564484 C36.6796719,11.930959 38.5,16.3255392 38.5,21.0000017 C38.5,28.0536074 36.2368125,29.8014208 21,51.8362284 Z" id="Shape"></path>
                </g>
            </g>
        </g>
    </g>
</svg>