<?xml version="1.0" encoding="utf-8"?>
<!-- Generator: Adobe Illustrator 23.0.3, SVG Export Plug-In . SVG Version: 6.00 Build 0)  -->
<svg version="1.1" id="Vrstva_1" xmlns="http://www.w3.org/2000/svg" xmlns:xlink="http://www.w3.org/1999/xlink" x="0px" y="0px"
	 viewBox="0 0 30.07 26.25" style="enable-background:new 0 0 30.07 26.25;" xml:space="preserve">
<g>
	<path d="M30.07,22.16H18.74c-0.31-1.59-1.7-2.79-3.38-2.79s-3.07,1.2-3.38,2.79H0v1.3h11.98c0.31,1.59,1.7,2.79,3.38,2.79
		c1.68,0,3.07-1.2,3.38-2.79h11.33V22.16z"/>
	<path d="M3.44,6.89c1.68,0,3.07-1.2,3.38-2.79h23.2v-1.3H6.82C6.52,1.2,5.12,0,3.44,0C1.54,0,0,1.54,0,3.45
		C0,5.35,1.54,6.89,3.44,6.89z"/>
	<path d="M26.58,16.57c1.9,0,3.45-1.54,3.45-3.45c0-1.9-1.54-3.45-3.45-3.45c-1.68,0-3.07,1.2-3.38,2.79H0v1.3h23.2
		C23.51,15.37,24.9,16.57,26.58,16.57z"/>
</g>
</svg>
