<?xml version="1.0" encoding="UTF-8"?>
<svg width="42px" height="57px" viewBox="0 0 42 57" version="1.1" xmlns="http://www.w3.org/2000/svg" xmlns:xlink="http://www.w3.org/1999/xlink">
    <title>question@3x</title>
    <defs>
        <filter x="-4.2%" y="-11.7%" width="108.3%" height="123.3%" filterUnits="objectBoundingBox" id="filter-1">
            <feOffset dx="0" dy="2" in="SourceAlpha" result="shadowOffsetOuter1"></feOffset>
            <feGaussianBlur stdDeviation="2" in="shadowOffsetOuter1" result="shadowBlurOuter1"></feGaussianBlur>
            <feColorMatrix values="0 0 0 0 0   0 0 0 0 0   0 0 0 0 0  0 0 0 0.5 0" type="matrix" in="shadowBlurOuter1" result="shadowMatrixOuter1"></feColorMatrix>
            <feMerge>
                <feMergeNode in="shadowMatrixOuter1"></feMergeNode>
                <feMergeNode in="SourceGraphic"></feMergeNode>
            </feMerge>
        </filter>
    </defs>
    <g id="Web" stroke="none" stroke-width="1" fill="none" fill-rule="evenodd">
        <g id="Aplikace---Home" transform="translate(-316.000000, -2930.000000)" fill="#FFFFFF" fill-rule="nonzero">
            <g id="Group" filter="url(#filter-1)" transform="translate(292.000000, 2905.000000)">
                <g id="question-light" transform="translate(28.000000, 27.000000)">
                    <path d="M17.1061182,0 C9.86710274,0 4.71884619,3.02412305 0.775811569,8.92929297 C-0.572462286,10.9485332 -0.121393393,13.68325 1.80269291,15.1551641 L5.79012295,18.2054141 C7.75462047,19.7082402 10.5660461,19.3696426 12.1154274,17.3909805 C14.1523995,14.7896738 14.8067577,14.3323086 16.491602,14.3323086 C17.4609021,14.3323086 18.8905676,15.0021348 18.8905676,16.078125 C18.8905676,18.5406621 8.52214906,18.0633906 8.52214906,27.7779277 L8.52214906,29.09375 C8.52214906,30.6256699 9.26994634,31.9838887 10.4158795,32.8188984 C8.45432272,34.5054746 7.20793067,37.0147148 7.20793067,39.8125 C7.20793067,44.8785449 11.2931635,49 16.3146843,49 C21.3362052,49 25.421438,44.8785449 25.421438,39.8125 C25.421438,37.0147148 24.175046,34.5054746 22.2134892,32.8188984 C23.3594224,31.983793 24.1072196,30.6256699 24.1072196,29.09375 L24.1072196,28.6434668 C26.5153868,26.8260645 34,24.3842949 34,15.30025 C34,6.58370508 25.4547346,0 17.1061182,0 Z M16.3146843,45.9375 C12.9670038,45.9375 10.2435152,43.1898633 10.2435152,39.8125 C10.2435152,36.4351367 12.9670038,33.6875 16.3146843,33.6875 C19.6623649,33.6875 22.3858535,36.4351367 22.3858535,39.8125 C22.3858535,43.1898633 19.6623649,45.9375 16.3146843,45.9375 Z M21.0716351,28.0978633 L21.0716351,29.09375 C21.0716351,29.9394785 20.3921384,30.625 19.5538428,30.625 L13.0755259,30.625 C12.2373251,30.625 11.5577336,29.9394785 11.5577336,29.09375 L11.5577336,27.7779277 C11.5577336,19.4726191 21.9261521,22.2916504 21.9261521,16.078125 C21.9261521,13.015625 18.9210183,11.2698086 16.491602,11.2698086 C13.2868785,11.2698086 11.8275212,12.8182852 9.73344216,15.4925176 C9.22090268,16.147127 8.28357108,16.2695312 7.6241852,15.7650801 L3.63675516,12.7148301 C2.9957725,12.2244473 2.84399327,11.3133535 3.29335465,10.6402734 C6.53213365,5.78994336 10.6569239,3.0625 17.1061182,3.0625 C23.8093529,3.0625 30.9644154,8.34129297 30.9644154,15.30025 C30.9644154,24.5408652 21.0716351,24.6830801 21.0716351,28.0978633 L21.0716351,28.0978633 Z" id="Shape"></path>
                </g>
            </g>
        </g>
    </g>
</svg>