<?xml version="1.0" encoding="UTF-8"?>
<svg width="51px" height="57px" viewBox="0 0 51 57" version="1.1" xmlns="http://www.w3.org/2000/svg" xmlns:xlink="http://www.w3.org/1999/xlink">
    <title>Shape</title>
    <defs>
        <filter x="-4.2%" y="-11.7%" width="108.3%" height="123.3%" filterUnits="objectBoundingBox" id="filter-1">
            <feOffset dx="0" dy="2" in="SourceAlpha" result="shadowOffsetOuter1"></feOffset>
            <feGaussianBlur stdDeviation="2" in="shadowOffsetOuter1" result="shadowBlurOuter1"></feGaussianBlur>
            <feColorMatrix values="0 0 0 0 0   0 0 0 0 0   0 0 0 0 0  0 0 0 0.5 0" type="matrix" in="shadowBlurOuter1" result="shadowMatrixOuter1"></feColorMatrix>
            <feMerge>
                <feMergeNode in="shadowMatrixOuter1"></feMergeNode>
                <feMergeNode in="SourceGraphic"></feMergeNode>
            </feMerge>
        </filter>
    </defs>
    <g id="Web" stroke="none" stroke-width="1" fill="none" fill-rule="evenodd">
        <g id="Moje-zver---Home" transform="translate(-309.000000, -1787.000000)" fill="#FFFFFF" fill-rule="nonzero">
            <g id="Group-4" transform="translate(294.000000, 1670.000000)">
                <g id="Group" filter="url(#filter-1)" transform="translate(0.000000, 92.000000)">
                    <g id="question-light" transform="translate(19.000000, 25.000000)">
                        <g id="file-medical-alt-light" transform="translate(0.000000, 2.000000)">
                            <path d="M41.6466518,9.37890625 L33.59375,1.34941406 C32.7299107,0.488085937 31.5589286,0 30.3399554,0 L10.7595982,0 C8.21607143,0.0095703125 6.15245536,2.0671875 6.15245536,4.60332031 L6.15245536,27.5625 L0.767857143,27.5625 C0.345535714,27.5625 0,27.9070313 0,28.328125 L0,29.859375 C0,30.2804687 0.345535714,30.625 0.767857143,30.625 L12.8712054,30.625 L16.2017857,37.2763672 C16.4801339,37.8410156 17.2959821,37.8410156 17.5743304,37.2763672 L23.0357143,26.3949219 L25.1569196,30.625 L33.7857143,30.625 C34.6303571,30.625 35.3214286,29.9359375 35.3214286,29.09375 C35.3214286,28.2515625 34.6303571,27.5625 33.7857143,27.5625 L27.0573661,27.5625 L23.7267857,20.9111328 C23.4484375,20.3464844 22.6325893,20.3464844 22.3542411,20.9111328 L16.8928571,31.7925781 L14.9828125,27.9835937 C14.8484375,27.7251953 14.5892857,27.5625 14.2917411,27.5625 L9.21428571,27.5625 L9.21428571,4.60332031 C9.21428571,3.76113281 9.91495536,3.0625 10.7595982,3.0625 L27.6524554,3.0625 L27.6524554,13.0251953 C27.6524554,14.2980469 28.6794643,15.3125 29.9560268,15.3125 L39.9381696,15.3125 L39.9381696,44.40625 C39.9381696,45.2484375 39.2470982,45.9375 38.4024554,45.9375 L10.7595982,45.9375 C9.91495536,45.9375 9.21428571,45.2484375 9.21428571,44.40625 L9.21428571,33.6875 L6.15245536,33.6875 L6.15245536,44.40625 C6.15245536,46.9423828 8.21607143,49 10.7595982,49 L38.3928571,49 C40.9363839,49 43,46.9423828 43,44.40625 L43,12.6328125 C43,11.4173828 42.5104911,10.2402344 41.6466518,9.37890625 Z M30.7142857,12.2595703 L30.7142857,3.11992188 C30.9830357,3.18691406 31.2229911,3.32089844 31.4245536,3.521875 L39.4774554,11.5513672 C39.6790179,11.7523438 39.8133929,11.9916016 39.8805804,12.2595703 L30.7142857,12.2595703 L30.7142857,12.2595703 Z" id="Shape"></path>
                        </g>
                    </g>
                </g>
            </g>
        </g>
    </g>
</svg>