<?xml version="1.0" encoding="utf-8"?>
<!-- Generator: Adobe Illustrator 23.0.3, SVG Export Plug-In . SVG Version: 6.00 Build 0)  -->
<svg version="1.1" id="Vrstva_1" xmlns="http://www.w3.org/2000/svg" xmlns:xlink="http://www.w3.org/1999/xlink" x="0px" y="0px"
	 viewBox="0 0 16.26 16.26" style="enable-background:new 0 0 16.26 16.26;" xml:space="preserve">
<style type="text/css">
	.st0{fill:#4EA7FF;}
	.st1{fill:#FEFFFE;}
</style>
<g id="Group_514" transform="translate(162.219 286.172)">
	<circle id="Ellipse_130" class="st0" cx="-154.09" cy="-278.04" r="8.13"/>
	<path id="Path_315" class="st1" d="M-155.31-276.61l2.65-2.55c0.73-0.71,1.47-1.42,2.21-2.13c0.27-0.29,0.7-0.39,1.07-0.24
		c0.49,0.16,0.76,0.68,0.6,1.16c-0.05,0.15-0.13,0.28-0.25,0.39c-0.72,0.7-1.45,1.4-2.17,2.09c-1.12,1.08-2.24,2.15-3.36,3.23
		c-0.37,0.42-1.02,0.45-1.43,0.07c-0.03-0.02-0.05-0.05-0.07-0.07c-1.02-0.98-2.04-1.97-3.07-2.95c-0.27-0.24-0.38-0.61-0.27-0.95
		c0.09-0.34,0.38-0.6,0.73-0.66c0.35-0.08,0.71,0.03,0.96,0.29c0.75,0.73,1.51,1.46,2.26,2.18
		C-155.4-276.7-155.36-276.66-155.31-276.61z"/>
</g>
</svg>
