<?xml version="1.0" encoding="utf-8"?>
<!-- Generator: Adobe Illustrator 23.0.3, SVG Export Plug-In . SVG Version: 6.00 Build 0)  -->
<svg version="1.1" id="Vrstva_1" xmlns="http://www.w3.org/2000/svg" xmlns:xlink="http://www.w3.org/1999/xlink" x="0px" y="0px"
	 viewBox="0 0 34.38 34.47" style="enable-background:new 0 0 34.38 34.47;" xml:space="preserve">
<style type="text/css">
	.st0{fill:#FFFFFF;}
</style>
<path id="Path_359" class="st0" d="M34.38,31.56L22.56,19.74c4.01-5.61,2.72-13.4-2.89-17.41C17.55,0.81,15.01,0,12.4,0h-0.02
	C5.48,0.06-0.06,5.71,0,12.6c0.06,6.81,5.57,12.32,12.38,12.38h0.02c2.6,0,5.14-0.81,7.25-2.33l11.82,11.82L34.38,31.56z
	 M12.4,20.86c-4.62,0-8.37-3.75-8.37-8.37s3.75-8.37,8.37-8.37c4.62,0,8.37,3.75,8.37,8.37v0C20.76,17.11,17.02,20.86,12.4,20.86
	L12.4,20.86z"/>
</svg>
