<?xml version="1.0" encoding="UTF-8"?>
<svg width="56px" height="56px" viewBox="0 0 56 56" version="1.1" xmlns="http://www.w3.org/2000/svg" xmlns:xlink="http://www.w3.org/1999/xlink">
    <title>stars@3x</title>
    <defs>
        <filter x="-4.8%" y="-11.7%" width="109.6%" height="123.3%" filterUnits="objectBoundingBox" id="filter-1">
            <feOffset dx="0" dy="2" in="SourceAlpha" result="shadowOffsetOuter1"></feOffset>
            <feGaussianBlur stdDeviation="2" in="shadowOffsetOuter1" result="shadowBlurOuter1"></feGaussianBlur>
            <feColorMatrix values="0 0 0 0 0   0 0 0 0 0   0 0 0 0 0  0 0 0 0.5 0" type="matrix" in="shadowBlurOuter1" result="shadowMatrixOuter1"></feColorMatrix>
            <feMerge>
                <feMergeNode in="shadowMatrixOuter1"></feMergeNode>
                <feMergeNode in="SourceGraphic"></feMergeNode>
            </feMerge>
        </filter>
    </defs>
    <g id="Web" stroke="none" stroke-width="1" fill="none" fill-rule="evenodd">
        <g id="Aplikace---Home" transform="translate(-615.000000, -2930.000000)" fill="#FFFFFF" fill-rule="nonzero">
            <g id="Group" filter="url(#filter-1)" transform="translate(595.000000, 2905.000000)">
                <g id="stars-light" transform="translate(24.000000, 27.000000)">
                    <path d="M47.7236937,20.534862 L44.0006102,18.9814864 L42.4482424,15.255987 C42.3639646,15.0860697 42.1906778,14.9785878 42.001008,14.9785878 C41.8113383,14.9785878 41.6380514,15.0860697 41.5537737,15.255987 L40.001223,18.9814864 L36.2783224,20.534862 C36.108958,20.6197358 36.0020161,20.7929467 36.0020161,20.9823875 C36.0020161,21.1718283 36.108958,21.3450392 36.2783224,21.429913 L40.0012211,22.9834686 L41.5537718,26.7087852 C41.6379716,26.8787978 41.8112856,26.9863675 42.0010062,26.9863675 C42.1907267,26.9863675 42.3640407,26.8787978 42.4482405,26.7087852 L44.0006102,22.9834686 L47.7236937,21.4299102 C47.893058,21.3450364 48,21.1718255 48,20.9823847 C48,20.7929439 47.893058,20.619733 47.7236937,20.5348592 L47.7236937,20.534862 Z M34.1531711,25.0387499 L24.3169744,23.6042183 L19.9189613,14.6764686 C19.5598561,13.938391 18.8088373,13.4721005 17.9880544,13.4774641 C17.1682969,13.4679024 16.4177971,13.9360015 16.0659375,14.6764686 L11.6679243,23.6042183 L1.84051861,25.0387499 C0.079555155,25.2905221 -0.623657976,27.4745202 0.65091641,28.7202186 L7.76802085,35.6630474 L6.08030896,45.4705443 C5.97029457,46.0971585 6.14257445,46.7403758 6.55105817,47.228115 C6.95954188,47.7158542 7.56254303,47.9983406 8.19873929,48 C8.54842432,48 8.89268629,47.9135563 9.20081805,47.748225 L17.9968444,43.1196721 L26.7928716,47.748225 C27.0994285,47.909441 27.4398233,47.995723 27.7861604,48 C28.4210361,47.9974789 29.0228152,47.7164415 29.4322765,47.2312458 C29.8417378,46.7460501 30.0176176,46.1055921 29.9133807,45.4793268 L28.2344589,35.6718309 L35.3515633,28.7290011 C36.6261377,27.4745202 35.9141345,25.3007689 34.1531711,25.0387499 Z M25.0113976,34.6208184 L26.6610226,44.2907165 L17.9880581,39.7177884 L9.31509368,44.2907165 L10.9647187,34.6208184 L3.96187488,27.764353 L13.6545,26.3503171 L17.9968416,17.5528461 L22.3274644,26.3503171 L32.0230201,27.764353 L25.0113976,34.6208184 Z M39.6738283,7.62469574 L35.1181642,5.34538479 L32.841797,0.766243831 C32.3349611,-0.25541461 30.6650392,-0.25541461 30.1582032,0.766243831 L27.881836,5.3263301 L23.3261719,7.60564011 C22.8200235,7.86127852 22.5006171,8.37980137 22.5,8.94684355 C22.5023695,9.51823539 22.8202218,10.0415659 23.3261719,10.3071007 L27.881836,12.5864061 L30.1582032,17.1464998 C30.4121476,17.6555305 30.9311467,17.9781295 31.5,17.9805414 C32.0700994,17.9824861 32.5912104,17.6585727 32.841797,17.1464952 L35.1181642,12.5864061 L39.6738283,10.3070961 C40.1804106,10.0519309 40.5,9.53311121 40.5,8.96589449 C40.5,8.39867777 40.1804106,7.87985807 39.6738283,7.62469292 L39.6738283,7.62469574 Z M33.3281251,10.119477 C33.0367203,10.2664351 32.8004327,10.5033901 32.654297,10.7952083 L31.5000001,13.1126295 L30.3457032,10.7952083 C30.1965953,10.5055432 29.9611185,10.2694013 29.6718751,10.119477 L27.357422,8.95710262 L29.6718751,7.79326199 C29.963588,7.64672942 30.199994,7.40965568 30.3457032,7.11753073 L31.5000001,4.80010947 L32.654297,7.11753073 C32.8025577,7.40781208 33.0382631,7.64418319 33.3281251,7.79326199 L35.6425783,8.95710262 L33.3281251,10.119477 Z" id="Shape"></path>
                </g>
            </g>
        </g>
    </g>
</svg>