<?xml version="1.0" encoding="utf-8"?>
<!-- Generator: Adobe Illustrator 23.0.3, SVG Export Plug-In . SVG Version: 6.00 Build 0)  -->
<svg version="1.1" id="Vrstva_1" xmlns="http://www.w3.org/2000/svg" xmlns:xlink="http://www.w3.org/1999/xlink" x="0px" y="0px"
	 viewBox="0 0 34.92 34.92" style="enable-background:new 0 0 34.92 34.92;" xml:space="preserve">
<path id="Path_334" d="M17.46,34.92C7.82,34.91,0.01,27.1,0,17.46C0.01,7.82,7.82,0.01,17.46,0c9.64,0.01,17.45,7.82,17.46,17.46
	C34.91,27.1,27.1,34.91,17.46,34.92z M17.46,1.84c-8.62,0.01-15.61,7-15.62,15.62c0.01,8.62,7,15.61,15.62,15.62
	c8.62-0.01,15.61-7,15.62-15.62C33.07,8.84,26.08,1.85,17.46,1.84L17.46,1.84z"/>
<path id="Path_335" d="M17.46,26.65c-5.07-0.01-9.18-4.12-9.19-9.19c0.01-5.07,4.12-9.18,9.19-9.19c5.07,0.01,9.18,4.12,9.19,9.19
	C26.64,22.53,22.53,26.64,17.46,26.65z M17.46,10.11c-4.06,0-7.35,3.29-7.35,7.35c0,4.06,3.29,7.35,7.35,7.35
	c4.06,0,7.35-3.29,7.35-7.35C24.81,13.4,21.52,10.11,17.46,10.11z"/>
<circle id="Ellipse_152" cx="17.46" cy="17.46" r="2.07"/>
</svg>
