<?xml version="1.0" encoding="UTF-8"?>
<svg width="59px" height="59px" viewBox="0 0 59 59" version="1.1" xmlns="http://www.w3.org/2000/svg" xmlns:xlink="http://www.w3.org/1999/xlink">
    <title>doctor</title>
    <defs>
        <filter x="-5.8%" y="-11.7%" width="111.5%" height="123.3%" filterUnits="objectBoundingBox" id="filter-1">
            <feOffset dx="0" dy="2" in="SourceAlpha" result="shadowOffsetOuter1"></feOffset>
            <feGaussianBlur stdDeviation="2" in="shadowOffsetOuter1" result="shadowBlurOuter1"></feGaussianBlur>
            <feColorMatrix values="0 0 0 0 0   0 0 0 0 0   0 0 0 0 0  0 0 0 0.5 0" type="matrix" in="shadowBlurOuter1" result="shadowMatrixOuter1"></feColorMatrix>
            <feMerge>
                <feMergeNode in="shadowMatrixOuter1"></feMergeNode>
                <feMergeNode in="SourceGraphic"></feMergeNode>
            </feMerge>
        </filter>
    </defs>
    <g id="Web" stroke="none" stroke-width="1" fill="none" fill-rule="evenodd">
        <g id="Moje-zver---Home" transform="translate(-879.000000, -1788.000000)" fill="#FFFFFF" fill-rule="nonzero">
            <g id="Group-4" transform="translate(294.000000, 1670.000000)">
                <g id="Group" filter="url(#filter-1)" transform="translate(567.000000, 92.000000)">
                    <g id="syringe-light" transform="translate(22.000000, 28.000000)">
                        <path d="M50.7684308,8.12144741 L42.8801387,0.231614415 C42.5713797,-0.0772048052 42.0634215,-0.0772048052 41.7546626,0.231614415 L40.6291866,1.35731028 C40.3204277,1.6661295 40.3204277,2.17418693 40.6291866,2.48300615 L43.4478567,5.30222678 L38.9359926,9.81497217 L33.2986525,4.17653091 L31.6054585,2.48300615 C31.2966995,2.17418693 30.7887413,2.17418693 30.4799824,2.48300615 L29.3545064,3.60870202 C29.0457475,3.91752124 29.0457475,4.42557867 29.3545064,4.73439789 L31.0477004,6.42792265 L8.41866029,29.0613829 C6.69558637,30.7847934 5.86890929,33.1557281 6.12786837,35.5764723 L6.83502588,41.9122473 L0.231569183,48.5169938 C-0.0771897276,48.8258131 -0.0771897276,49.3338705 0.231569183,49.6426897 L1.35704521,50.7683856 C1.66580412,51.0772048 2.17376233,51.0772048 2.48252124,50.7683856 L9.08597793,44.163639 L15.4205156,44.8709347 C17.8009472,45.1299443 20.1913387,44.3329915 21.9343326,42.5796953 L44.5633727,19.946235 L46.2565667,21.6397597 C46.5653257,21.948579 47.0732839,21.948579 47.3820428,21.6397597 L48.5075188,20.5240258 C48.8162777,20.2152066 48.8162777,19.7071491 48.5075188,19.3983299 L41.1869446,12.0763258 L45.6988087,7.56358043 L48.5174788,10.3828011 C48.8262377,10.6916203 49.3341959,10.6916203 49.6429548,10.3828011 L50.7684308,9.25710519 C51.0771897,8.93832406 51.0771897,8.44022854 50.7684308,8.12144741 Z M42.3124207,17.7048052 L19.6933405,40.3382655 C18.6575041,41.3743041 17.2431891,41.8723996 15.7890343,41.7130091 L9.96245484,41.0654849 L9.31505712,35.2377674 C9.15569769,33.7833285 9.65369593,32.3587753 10.6895323,31.3326985 L13.030124,28.9916496 L16.9742701,32.9365661 C17.283029,33.2453853 17.7909872,33.2453853 18.0997461,32.9365661 L19.2252221,31.8108702 C19.5339811,31.502051 19.5339811,30.9939936 19.2252221,30.6851743 L15.2810761,26.7402578 L19.7929401,22.2275125 L23.7370862,26.1724289 C24.0458451,26.4812482 24.5538033,26.4812482 24.8625622,26.1724289 L25.9880383,25.0467331 C26.2967972,24.7379139 26.2967972,24.2298564 25.9880383,23.9210372 L22.0438922,19.9761207 L26.5557563,15.4633753 L30.4999024,19.4082918 C30.8086613,19.717111 31.3166195,19.717111 31.6253784,19.4082918 L32.7508544,18.282596 C33.0596133,17.9737767 33.0596133,17.4657193 32.7508544,17.1569001 L28.7867884,13.1920598 L33.2986525,8.67931439 L42.3124207,17.7048052 L42.3124207,17.7048052 Z" id="Shape"></path>
                    </g>
                </g>
            </g>
        </g>
    </g>
</svg>