<?xml version="1.0" encoding="UTF-8"?>
<svg width="48px" height="48px" viewBox="0 0 48 48" version="1.1" xmlns="http://www.w3.org/2000/svg" xmlns:xlink="http://www.w3.org/1999/xlink">
    <title>hodiny</title>
    <g id="Web" stroke="none" stroke-width="1" fill="none" fill-rule="evenodd">
        <g id="Moje-zver---Home" transform="translate(-830.000000, -1148.000000)" fill="#F3847F" fill-rule="nonzero">
            <g id="Group-5" transform="translate(294.000000, 405.000000)">
                <g id="Group-2" transform="translate(506.887302, 686.000000)">
                    <g id="clock-light" transform="translate(29.112698, 57.000000)">
                        <path d="M24,0 C10.7419355,0 0,10.7419355 0,24 C0,37.2580645 10.7419355,48 24,48 C37.2580645,48 48,37.2580645 48,24 C48,10.7419355 37.2580645,0 24,0 Z M44.9032258,24 C44.9032258,35.4870968 35.6032258,44.9032258 24,44.9032258 C12.5129032,44.9032258 3.09677419,35.6032258 3.09677419,24 C3.09677419,12.5129032 12.3967742,3.09677419 24,3.09677419 C35.4870968,3.09677419 44.9032258,12.3967742 44.9032258,24 Z M30.4935484,32.5451613 L22.6354839,26.8354839 C22.3354839,26.6129032 22.1612903,26.2645161 22.1612903,25.8967742 L22.1612903,10.4516129 C22.1612903,9.81290323 22.683871,9.29032258 23.3225806,9.29032258 L24.6774194,9.29032258 C25.316129,9.29032258 25.8387097,9.81290323 25.8387097,10.4516129 L25.8387097,24.6096774 L32.6612903,29.5741935 C33.183871,29.9516129 33.2903226,30.6774194 32.9129032,31.2 L32.1193548,32.2935484 C31.7419355,32.8064516 31.016129,32.9225806 30.4935484,32.5451613 L30.4935484,32.5451613 Z" id="Shape"></path>
                    </g>
                </g>
            </g>
        </g>
    </g>
</svg>