<?xml version="1.0" encoding="UTF-8"?>
<svg width="51px" height="48px" viewBox="0 0 51 48" version="1.1" xmlns="http://www.w3.org/2000/svg" xmlns:xlink="http://www.w3.org/1999/xlink">
    <title>pes</title>
    <g id="Web" stroke="none" stroke-width="1" fill="none" fill-rule="evenodd">
        <g id="Moje-zver---Home" transform="translate(-393.000000, -1377.000000)" fill="#F3847F" fill-rule="nonzero">
            <g id="Group-5" transform="translate(294.000000, 405.000000)">
                <g id="Group-3" transform="translate(70.000000, 914.000000)">
                    <g id="Group" transform="translate(0.887302, 0.000000)">
                        <g id="dog-light" transform="translate(28.112698, 58.000000)">
                            <path d="M49.40625,6.4000903 L43.03125,6.4000903 L42.3180469,4.9690934 C41.8359375,3.99209552 40.5539648,3.20009724 39.4672266,3.20009724 L32.5314258,3.20009724 L29.814082,0.472103163 C29.5217376,0.170037265 29.1199702,5.13005774e-05 28.7004492,5.13005774e-05 C28.2755213,-0.00336199863 27.8668101,0.163677154 27.5651175,0.464111217 C27.2634248,0.764545281 27.093736,1.17349323 27.09375,1.60010071 L27.09375,19.2000625 L15.9375,19.2000625 C14.0610342,19.1997489 12.2263625,19.7564131 10.6641797,20.800059 L7.96875,20.800059 C5.32927646,20.7973031 3.19024516,18.6498881 3.1875,16.0000695 C3.1875,15.1164158 2.47395382,14.4000729 1.59375,14.4000729 C0.71354618,14.4000729 0,15.1164158 0,16.0000695 C0.00923306835,20.3121857 3.42349753,23.8398253 7.71673828,23.9730522 C6.84756495,25.4326403 6.38422389,27.0995395 6.375,28.8000417 L6.375,44.8000069 C6.375,46.5673143 7.80209236,48 9.5625,48 L15.9375,48 C17.6979076,48 19.125,46.5673143 19.125,44.8000069 L19.125,35.2000278 L28.6875,35.2000278 L28.6875,44.8000069 C28.6875,46.5673143 30.1145924,48 31.875,48 L38.25,48 C40.0104076,48 41.4375,46.5673143 41.4375,44.8000069 L41.4375,20.800059 L44.625,20.800059 C48.1458153,20.800059 51,17.9346877 51,14.4000729 L51,8.00008682 C51,7.11643314 50.2864538,6.4000903 49.40625,6.4000903 Z M38.25,44.8000069 L31.875,44.8000069 L31.875,32.0000347 L15.9375,32.0000347 L15.9375,44.8000069 L9.5625,44.8000069 L9.5625,28.8000417 C9.56634285,25.2670262 12.4182777,22.4039135 15.9375,22.4000556 L27.6973828,22.4000556 L38.25,25.0480498 L38.25,44.8000069 Z M47.8125,14.4000729 C47.8125,16.1673803 46.3854076,17.600066 44.625,17.600066 L38.25,17.600066 L38.25,21.752057 L30.28125,19.7520613 L30.28125,5.46609232 L31.2116016,6.4000903 L39.4672266,6.4000903 L41.0609766,9.60008335 L47.8125,9.60008335 L47.8125,14.4000729 Z M38.25,9.60008335 C38.25,10.483737 37.5364538,11.2000799 36.65625,11.2000799 C35.7760462,11.2000799 35.0625,10.483737 35.0625,9.60008335 C35.0625,8.71642967 35.7760462,8.00008682 36.65625,8.00008682 C37.5364538,8.00008682 38.25,8.71642967 38.25,9.60008335 Z" id="Shape"></path>
                        </g>
                    </g>
                </g>
            </g>
        </g>
    </g>
</svg>